<?xml version="1.0" standalone="no"?>
<!DOCTYPE svg PUBLIC "-//W3C//DTD SVG 20010904//EN"
 "http://www.w3.org/TR/2001/REC-SVG-20010904/DTD/svg10.dtd">
<svg version="1.0" xmlns="http://www.w3.org/2000/svg"
 width="512.000000pt" height="512.000000pt" viewBox="0 0 512.000000 512.000000"
 preserveAspectRatio="xMidYMid meet">
<metadata>
Created by potrace 1.14, written by Peter Selinger 2001-2017
</metadata>
<g transform="translate(0.000000,512.000000) scale(0.100000,-0.100000)"
fill="#000000" stroke="none">
<path d="M505 5106 c-134 -32 -228 -82 -315 -168 -101 -101 -159 -218 -180
-363 -8 -58 -10 -630 -8 -2075 l3 -1995 22 -65 c68 -197 224 -352 418 -413 91
-28 251 -30 340 -3 168 50 310 167 384 317 74 150 71 82 71 1434 l0 1209 478
-476 c475 -474 477 -476 562 -516 107 -50 173 -66 280 -66 107 0 173 16 280
66 85 40 87 42 563 516 l477 476 0 -1209 c0 -1352 -3 -1284 71 -1434 74 -150
216 -267 384 -317 89 -27 249 -25 340 3 196 62 355 221 418 418 l22 70 0 2045
0 2045 -22 70 c-24 76 -77 169 -135 239 -46 55 -167 137 -245 166 -246 92
-532 8 -706 -207 -30 -37 -368 -381 -751 -763 l-696 -695 -718 721 c-394 397
-746 753 -782 791 -73 78 -156 129 -264 162 -90 28 -214 35 -291 17z m3996
-185 c33 -33 39 -82 14 -117 -7 -12 -42 -31 -77 -44 -60 -21 -78 -37 -393
-350 -219 -217 -339 -330 -358 -334 -32 -8 -81 15 -97 43 -5 11 -10 35 -10 53
0 30 27 60 317 348 319 317 392 379 488 412 69 24 82 22 116 -11z m-4083 -147
c30 -34 28 -68 -9 -126 -28 -43 -32 -60 -40 -156 -4 -59 -8 -259 -8 -445 l-1
-338 -25 -24 c-26 -27 -72 -33 -106 -15 -47 25 -49 46 -49 422 0 194 5 395 10
447 14 131 64 235 125 262 31 13 78 1 103 -27z"/>
</g>
</svg>
