<?xml version="1.0" standalone="no"?>
<!DOCTYPE svg PUBLIC "-//W3C//DTD SVG 20010904//EN"
 "http://www.w3.org/TR/2001/REC-SVG-20010904/DTD/svg10.dtd">
<svg version="1.0" xmlns="http://www.w3.org/2000/svg"
 width="512.000000pt" height="512.000000pt" viewBox="0 0 512.000000 512.000000"
 preserveAspectRatio="xMidYMid meet">
<metadata>
Created by potrace 1.14, written by Peter Selinger 2001-2017
</metadata>
<g transform="translate(0.000000,512.000000) scale(0.100000,-0.100000)"
fill="#000000" stroke="none">
<path d="M1100 4759 c-58 -5 -115 -13 -128 -19 -13 -5 -38 -10 -56 -10 -53 0
-179 -36 -247 -71 -99 -50 -195 -152 -252 -269 -79 -160 -115 -322 -137 -610
-17 -218 -24 -1242 -11 -1645 39 -1231 146 -1602 476 -1654 33 -5 103 -17 155
-25 280 -46 641 14 767 128 103 92 143 306 143 751 0 265 -8 417 -52 1005 -33
446 -43 922 -22 984 l10 30 176 -205 c185 -215 330 -364 342 -351 4 4 6 1 4
-7 -4 -19 156 -148 250 -202 42 -24 90 -43 115 -46 67 -7 141 48 356 270 304
315 436 441 439 421 12 -55 -36 -394 -138 -974 -128 -728 -147 -882 -137
-1140 7 -180 25 -276 73 -379 83 -180 221 -304 392 -355 275 -81 731 8 892
174 281 290 404 1234 339 2610 -12 260 -44 647 -65 788 -19 132 -55 257 -101
352 -51 105 -167 220 -279 278 -95 49 -224 86 -361 103 -144 18 -473 6 -577
-21 -252 -64 -424 -214 -801 -693 -59 -75 -71 -86 -80 -72 -209 350 -435 572
-730 716 -66 32 -149 68 -185 80 -160 52 -377 75 -570 58z m2637 -224 c94 -39
173 -139 292 -367 76 -147 86 -190 56 -247 -26 -50 -67 -54 -141 -12 -57 33
-100 78 -140 148 -16 26 -63 101 -106 165 -84 125 -117 189 -118 225 0 37 21
71 54 87 39 20 58 20 103 1z m449 -784 c20 -12 38 -36 49 -64 15 -40 15 -47 1
-81 -17 -41 -70 -70 -110 -60 -41 10 -78 58 -83 107 -6 54 8 84 50 102 43 19
57 18 93 -4z"/>
</g>
</svg>
